<?xml version="1.0" standalone="no"?><!DOCTYPE svg PUBLIC "-//W3C//DTD SVG 1.1//EN" "http://www.w3.org/Graphics/SVG/1.1/DTD/svg11.dtd"><svg t="1574401523119" class="icon" viewBox="0 0 1097 1024" version="1.1" xmlns="http://www.w3.org/2000/svg" p-id="908" xmlns:xlink="http://www.w3.org/1999/xlink" width="68.5625" height="64"><defs><style type="text/css"></style></defs><path d="M117.394286 840.630857l70.436571 70.436572L272.384 826.514286l-65.682286-65.755429-89.234285 79.725714z m352.182857 183.149714h93.842286v-136.192H469.577143v136.192z m46.957714-793.6A282.550857 282.550857 0 0 1 798.281143 512a282.550857 282.550857 0 0 1-281.746286 281.746286A282.550857 282.550857 0 0 1 234.788571 511.926857a282.550857 282.550857 0 0 1 281.746286-281.746286z m0 73.142858A209.188571 209.188571 0 0 0 307.931429 512a209.188571 209.188571 0 0 0 208.603428 208.603429 209.188571 209.188571 0 0 0 208.603429-208.603429 209.188571 209.188571 0 0 0-208.603429-208.603429z m375.588572 255.561142h140.873142V465.042286h-140.873142V558.811429z m-131.510858 267.702858l84.553143 84.48 65.828572-65.682286-84.626286-84.553143-65.755429 65.828571z m154.989715-643.291429l-70.436572-70.436571L760.612571 197.485714l65.828572 65.755429 89.161143-79.872zM469.577143 136.338286h93.842286V0.219429H469.577143v136.045714zM0 558.811429h140.873143V465.042286H0V558.811429zM272.384 197.485714L187.830857 112.859429l-70.436571 70.436571 84.553143 84.553143 70.436571-70.436572z" p-id="909" fill="#cdcdcd"></path></svg>